<svg id="Calque_1" data-name="Calque 1" xmlns="http://www.w3.org/2000/svg" viewBox="0 0 192.01 105.42"><defs><style>.cls-1{fill:#039f4e;}</style></defs><path class="cls-1" d="M-.07,52.64v52.71l65.72,0,65.74-.06,20-52.5c11-28.89,20-52.56,20-52.67s-38.56-.15-85.7-.15H-.07ZM179.88.19c-.06.15-8.83,23.82-19.5,52.62S141,105.2,141,105.25a5.83,5.83,0,0,0,1.54.1h1.56l19-51.38C173.6,25.7,182.39,2,182.66,1.24l.49-1.31h-1.58C180.47-.07,180,0,179.88.19Zm10.37.63c-.31.89-38.35,103.46-38.62,104.15-.13.32,0,.38.55.38h.71l17.29-46.66C179.67,33.06,188.46,9.34,189.71,6l2.23-6.06h-.67C190.63-.07,190.53,0,190.25.82Z" transform="translate(0.07 0.07)"/></svg>